<?xml version="1.0" encoding="utf-8"?>
<!-- Generator: Adobe Illustrator 25.2.3, SVG Export Plug-In . SVG Version: 6.00 Build 0)  -->
<svg version="1.1" id="Camada_1" xmlns="http://www.w3.org/2000/svg" xmlns:xlink="http://www.w3.org/1999/xlink" x="0px" y="0px"
	 viewBox="0 0 265.2 81.8" style="enable-background:new 0 0 265.2 81.8;" xml:space="preserve">
<style type="text/css">
	.st0{fill:#2C2F43;}
	.st1{fill:#9664A9;}
	.st2{fill:#E2C9AB;}
	.st3{fill:#6E6639;}
</style>
<g>
	<path class="st3" d="M146.8,39.3c-0.6-0.6-1.5-0.5-2.1,0c-2.3,1.9-5.3,4.4-8.5,3.6c-2.9-0.7-3.6-4.2-4.1-6.7
		c-0.1-0.6-0.7-1-1.3-1.1c-0.3-0.5-0.6-0.9-1.1-1.4c-2.3-2.2-5.6-2.8-8.5-1.6c-2.6,1.2-4.4,3.5-5.6,6.1c-0.2,0.1-0.5,0.3-0.7,0.6
		c-1,1.8-2.2,3.5-3.6,5.1c-1.2,1.4-2.7,2.9-4.3,3.8c-1.6,0.8-3.1-0.1-3.8-1.7c-0.9-2.1,0-4.6,0.6-6.6c0.4-1.4-1.5-2.5-2.5-1.5
		c-2.6,2.7-5.5,5.8-9.2,7c-0.2-2.3-1.7-4.7-4-5.4c-2.4-0.7-5.1,0.8-5.8,3.2C81.8,44,82,45.4,83,46.3c1,0.9,2.3,1.5,3.6,1.8
		c0.4,0.1,0.9,0.2,1.3,0.2c-0.4,0.5-0.8,1-1.3,1.3c-1.4,1.2-4.1,2.6-5.7,0.9c-1.3-1.4-1.5-3.6-2.2-5.3c-0.8-1.9-2.5-3.7-4.6-4
		c-2.8-0.5-4.2,2.1-5.5,4.1c-1.4,2.1-2.8,4.3-4.2,6.4c-2.4-2.7-4-6-4.6-9.6c-0.2-1.2-1.7-1.3-2.5-0.7c-2.8,2.4-3.9,6.2-6.5,8.8
		c-1.1,1.2-2.7,2.3-4.5,2c-1.7-0.3-3-1.8-4-3.2c-1.1-1.6-2-3.3-2.6-5.1c1.3-1,2.5-2,3.8-3c3-2.5,6.6-5.3,7.6-9.4
		c0.8-3.3-0.3-7.3-3.6-8.8c-3.6-1.7-7.2,0.7-9.3,3.7c-2.3,3.3-2.9,7.8-2.7,11.8c0.1,1.6,0.3,3.1,0.7,4.6c-3.3,2.5-6.6,4.9-10,7.2
		c-5.5,3.7-15.6,8.4-13.7,16.7c0.4,1.9,3.3,1.1,2.9-0.8c-0.9-3.7,2.5-6.7,5.2-8.7c3.6-2.7,7.6-4.9,11.3-7.5c1.8-1.3,3.5-2.5,5.3-3.9
		c0.6,1.4,1.2,2.8,2.1,4.1c1.2,1.9,2.7,3.8,4.8,4.7c2.1,1,4.4,0.7,6.4-0.4c3.5-2,4.8-5.7,7.1-8.7c1.1,3.6,3.2,7,6,9.6
		c0.7,0.7,1.8,0.5,2.4-0.3c1.9-2.9,3.9-5.9,5.8-8.8c0.7-1,1.2-2.4,2.6-1.5c1.2,0.8,1.7,2.1,2.1,3.3c0.7,2.3,1.6,4.9,4,6
		c2.6,1.2,5.6,0.1,7.8-1.6c1.4-1.1,2.6-2.5,3.3-4.1c3.1-0.6,5.9-2.5,8.4-4.6c-0.1,1.3,0.1,2.5,0.6,3.7c0.9,2.1,3,3.9,5.4,3.8
		c2.6-0.1,4.8-2.2,6.6-4c1.1-1.1,2.2-2.4,3.1-3.7c0.9,1.5,2.5,2.7,4.4,3c3.7,0.7,7.7-1.5,10-4.3c0.2-0.3,0.5-0.6,0.6-0.9
		c0.9,2.1,2.4,3.9,4.9,4.5c4.4,1.1,8.2-1.7,11.4-4.4C147.4,40.9,147.3,39.9,146.8,39.3z M38.9,40.9c-0.1-0.7-0.2-1.3-0.3-2
		c-0.3-3.4,0-7.2,1.8-10.2c1.4-2.2,4.8-5.1,7-2.1c2,2.8,0.2,6.3-1.8,8.4C43.6,37.1,41.3,39,38.9,40.9z M86.7,45
		c-0.5-0.2-0.8-0.5-1.3-0.6c-0.4-0.1-0.5-0.2-0.3-0.8c0.8-2.2,3.1-1,3.7,0.6C89,44.6,89,45,89,45.4C88.2,45.4,87.4,45.3,86.7,45z
		 M124,43c-1.4,0.7-3.1,1-4.5,0.3c-0.8-0.4-1.6-1.2-1.8-2.1c0.8-2.4,2.1-4.8,4.4-6c2.1-1.1,5-0.5,6.2,1.7
		C129.7,39.4,126.1,42,124,43z"/>
	<path class="st3" d="M61.9,33.6c2-1.3,3.8-2.9,5.3-4.8c0.3-0.3,0.4-0.6,0.4-1.1c0-0.4-0.2-0.8-0.4-1.1c-0.3-0.3-0.7-0.5-1.1-0.4
		c-0.4,0-0.8,0.1-1.1,0.4c-0.7,0.9-1.4,1.7-2.3,2.5c-0.4,0.3-0.8,0.7-1.2,1c-0.1,0.1-0.2,0.1-0.2,0.2c-0.1,0.1-0.2,0.2-0.4,0.3
		c-0.2,0.2-0.5,0.3-0.7,0.5c-0.7,0.4-1,1.4-0.5,2.1C60.2,33.7,61.2,34.1,61.9,33.6z"/>
	<path class="st3" d="M252.6,38.2c-2.5-3.5-6.9-4.7-11-3.9c-1.2,0.2-2.4,0.7-3.6,1.2c-2.4-4-9-6.2-12-1.6c-0.6,0.9-0.9,2-1,3.1
		c-1,2.2-2.3,4.2-3.9,6c-0.8,1-1.8,2.1-2.9,2.8c-1.1,0.7-1.6-0.9-1.9-1.7c-1.8-4.4-2.9-9.1-3.1-13.9c0-1.1,0-2.1-0.1-3.2
		c-0.2-1.9-3-2-3,0c0,1.1,0,2.2,0.1,3.3c-0.1,4-1,7.9-2.8,11.4c-1,1.9-2.3,4.7-4.3,5.6c-2.2,1-2.3-2.5-2.2-3.8
		c0-1.6-2.6-2.1-2.9-0.4c-0.3,1.7-0.9,3.4-1.8,4.9c-0.5,0.8-1.1,1.6-1.7,2.3c0,0,0,0,0,0c-0.1-0.2-0.1-0.4-0.1-0.4
		c-0.5-2-0.9-4-1.1-6.1c-0.2-1.6,0.1-3.7-0.5-5.2c-1.6-3.9-6.1-0.2-8.2,1.1c-0.8,0.5-1.6,1-2.5,1.2c-0.1-0.2-0.1-0.3-0.2-0.5
		c-1.3-2-3.5-3.3-5.9-2.6c-0.6,0.2-1.2,0.8-1.1,1.4c0.3,2.7,2.5,4.4,5,4.8c0,1.9-1.2,3.8-2.3,5.3c-0.9,1.3-2.1,2.9-3.7,1.6
		c-1.5-1.1-2.3-3-2.9-4.6c-1.5-3.6-2.7-7.6-3.2-11.6c1.2-0.8,2.3-1.7,3.5-2.6c3.1-2.6,6.3-5.8,7.7-9.7c0.6-1.8,0.8-3.9-0.1-5.7
		c-0.9-1.9-3-2.9-5.1-2.8c-5.1,0.4-7.4,5.9-8.4,10.2c-0.7,3-0.9,6.1-0.7,9.2c-3.4,2.3-6.9,4.4-10.2,6.9c-3.1,2.4-6,5-8.1,8.3
		c-1.9,3-2.9,7.7,0.2,10.2c1.5,1.2,3.6-0.9,2.1-2.1c-3.2-2.6,0.8-7.6,2.7-9.7c2.8-3.1,6.2-5.4,9.7-7.7c1.3-0.9,2.6-1.7,4-2.6
		c0.1,0.9,0.3,1.7,0.5,2.6c0.6,2.5,1.3,4.9,2.3,7.3c0.8,2.1,1.7,4.2,3.2,5.9c1.6,1.7,3.9,2.7,6.2,1.6c2.2-1.1,3.8-3.9,4.7-6.1
		c0.6-1.3,0.9-2.7,0.9-4.1c1.8-0.5,3.5-1.6,5-2.6c0.4-0.3,0.9-0.6,1.4-0.9c0.1-0.1,1.1-0.5,0.9-0.6c0.4,0.2,0.2,2.5,0.2,3
		c0.2,2.4,0.5,4.8,1,7.1c0.4,1.7,0.9,4,3.1,3.9c1.9-0.1,3.4-2.4,4.3-3.8c0.2-0.4,0.4-0.7,0.6-1.1c0.4,0.6,1,1.1,1.8,1.4
		c3.2,1.3,5.8-1.7,7.4-4.1c1.4-2.1,2.6-4.4,3.4-6.8c0.3,1.3,0.7,2.6,1.2,3.8c0.5,1.5,1,3.1,2,4.3c0.9,1.2,2.3,1.9,3.7,1.5
		c1.5-0.4,2.8-1.8,3.9-2.9c1.1-1.2,2.2-2.5,3.1-3.8c0.2,0.9,0.6,1.8,1.1,2.6c1.4,2,3.8,2.9,6.3,2.6c4.6-0.6,6.9-4.9,6.2-9.1
		c0.8-0.4,1.6-0.7,2.5-1c2.9-0.8,6.6-0.3,8.5,2.3C251.1,41.3,253.8,39.8,252.6,38.2z M169.2,21.2c0.8-1.7,1.9-3.6,3.9-4
		c1.7-0.4,3,0.7,3,2.4c0,3.3-2.7,6.2-4.9,8.4c-1.3,1.2-2.6,2.4-4,3.4C167.2,27.8,167.7,24.4,169.2,21.2z M228.1,36.5
		c0.1-0.3,0.2-0.6,0.4-0.9c0.9-1.5,2.9-1.5,4.4-0.9c1,0.4,1.9,1.2,2.5,2.2c-0.2,0.1-0.3,0.2-0.5,0.3c-1.5,0.9-4,2.9-5.9,2
		c-0.5-0.2-0.7-0.6-0.9-1.1c0-0.4,0-0.8,0.1-1.1C228.2,36.8,228.1,36.6,228.1,36.5z M234.4,43.7c-1.5,1-3.7,1.1-5-0.2
		c-0.4-0.4-0.7-0.9-0.9-1.4c1.2,0.3,2.6,0.2,3.8-0.2c1.4-0.5,2.6-1.2,3.9-2C236.3,41.4,235.8,42.8,234.4,43.7z"/>
	<path class="st3" d="M212.3,24.3c6.3-3,14.1-6.1,20.7-2.1c1.7,1,3.2-1.6,1.5-2.6c-6.2-3.7-13.7-2.2-20.1,0.5
		c-3.5,1.5-6.8,3.3-10.3,4.7c-2.6,1-6.3,2.2-8.6,0c-1.4-1.4-3.5,0.7-2.1,2.1C198.6,32.1,207.1,26.8,212.3,24.3z"/>
	<path class="st3" d="M201.3,37C201.3,36.9,201.3,36.9,201.3,37c-0.1-0.2-0.2-0.3-0.3-0.4c0,0,0,0-0.1-0.1c-0.1,0-0.1-0.1-0.2-0.1
		c0,0-0.1-0.1-0.2-0.1c0,0,0,0,0,0c0,0,0,0,0,0c-0.1-0.1-0.3-0.1-0.4-0.2c0,0-0.1,0-0.1,0c-0.1,0-0.3,0-0.4-0.1c0,0,0,0,0,0
		c0,0-0.1,0-0.1,0c-0.1,0-0.3,0-0.4,0.1c0,0,0,0,0,0c0,0-0.1,0-0.1,0c-0.2,0.1-0.4,0.1-0.5,0.2c-0.1,0.1-0.2,0.2-0.3,0.3
		c0,0,0,0,0,0c0,0,0,0,0,0c-0.1,0.1-0.2,0.2-0.3,0.3c0,0,0,0.1-0.1,0.1c0,0,0,0,0,0c-0.1,0.1-0.1,0.3-0.2,0.4
		c-0.1,0.2-0.1,0.4,0,0.6c0,0.2,0.1,0.4,0.2,0.6c0.1,0.1,0.2,0.2,0.3,0.3c0,0,0,0,0,0c0,0.1,0.1,0.1,0.1,0.2c0,0,0.1,0.1,0.1,0.2
		c0,0,0,0,0,0c0.1,0.1,0.3,0.2,0.4,0.3c0,0,0,0,0,0c0.1,0.1,0.3,0.1,0.4,0.2c0,0,0.1,0,0.1,0c0.1,0,0.2,0,0.2,0c0.1,0,0.2,0,0.2,0
		c0.2,0,0.4,0,0.5-0.1c0,0,0.1,0,0.1,0c0.1,0,0.3-0.1,0.4-0.2c0.1,0,0.1-0.1,0.2-0.1c0.1,0,0.1-0.1,0.2-0.1c0.1-0.1,0.1-0.1,0.2-0.2
		c0-0.1,0.1-0.1,0.2-0.2c0,0,0,0,0,0c0.1-0.1,0.1-0.3,0.2-0.4c0,0,0,0,0-0.1c0,0,0,0,0,0c0-0.1,0-0.3,0.1-0.4c0,0,0-0.1,0-0.1
		c0,0,0,0,0,0c0-0.1,0-0.3-0.1-0.4C201.5,37.3,201.4,37.1,201.3,37z"/>
	<path class="st3" d="M102.9,34c0.1,0.1,0.2,0.2,0.3,0.3c0,0,0,0,0,0c0,0.1,0.1,0.1,0.1,0.2c0,0,0.1,0.1,0.1,0.2c0,0,0,0,0,0
		c0.1,0.1,0.3,0.2,0.4,0.3c0,0,0,0,0,0c0.1,0.1,0.3,0.1,0.4,0.2c0,0,0.1,0,0.1,0c0.1,0,0.2,0,0.2,0c0.1,0,0.2,0,0.2,0
		c0.2,0,0.4,0,0.5-0.1c0,0,0.1,0,0.1,0c0.1,0,0.3-0.1,0.4-0.2c0.1,0,0.1-0.1,0.2-0.1c0.1,0,0.1-0.1,0.2-0.1c0.1-0.1,0.1-0.1,0.2-0.2
		c0-0.1,0.1-0.1,0.2-0.2c0,0,0,0,0,0c0.1-0.1,0.1-0.3,0.2-0.4c0,0,0,0,0-0.1c0,0,0,0,0,0c0-0.1,0-0.3,0.1-0.4c0,0,0-0.1,0-0.1
		c0,0,0,0,0,0c0-0.1,0-0.3-0.1-0.4c0-0.2-0.1-0.4-0.2-0.5c0,0,0,0,0-0.1c-0.1-0.1-0.2-0.2-0.3-0.4c0,0,0,0-0.1-0.1
		c-0.1,0-0.1-0.1-0.2-0.1c0,0-0.1-0.1-0.2-0.1c0,0,0,0,0,0c0,0,0,0,0,0c-0.1-0.1-0.3-0.1-0.4-0.2c0,0-0.1,0-0.1,0
		c-0.1,0-0.3,0-0.4-0.1c0,0,0,0,0,0c0,0-0.1,0-0.1,0c-0.1,0-0.3,0-0.4,0.1c0,0,0,0,0,0c0,0-0.1,0-0.1,0c-0.2,0.1-0.4,0.1-0.5,0.2
		c-0.1,0.1-0.2,0.2-0.3,0.3c0,0,0,0,0,0c0,0,0,0,0,0c-0.1,0.1-0.2,0.2-0.3,0.3c0,0,0,0.1-0.1,0.1c0,0,0,0,0,0
		c-0.1,0.1-0.1,0.3-0.2,0.4c-0.1,0.2-0.1,0.4,0,0.6C102.7,33.6,102.8,33.8,102.9,34z"/>
</g>
</svg>
