<svg id="Camada_1" data-name="Camada 1" xmlns="http://www.w3.org/2000/svg" viewBox="0 0 265.25 81.84"><defs><style>.cls-1{fill:#5f5831;}</style></defs><path class="cls-1" d="M146.81,39.31a1.54,1.54,0,0,0-2.12,0c-2.3,1.92-5.26,4.43-8.49,3.62-2.93-.73-3.57-4.17-4.08-6.71a1.48,1.48,0,0,0-1.35-1.08,6.4,6.4,0,0,0-1.07-1.36,7.7,7.7,0,0,0-8.51-1.55,11.66,11.66,0,0,0-5.63,6.08,1.48,1.48,0,0,0-.65.62A28.44,28.44,0,0,1,111.27,44a16.62,16.62,0,0,1-4.34,3.77c-1.62.81-3.1-.1-3.78-1.68-.9-2.08,0-4.57.56-6.61a1.51,1.51,0,0,0-2.5-1.46c-2.6,2.72-5.52,5.84-9.2,6.95a6,6,0,0,0-4-5.38A4.85,4.85,0,0,0,82.2,42.8,3.35,3.35,0,0,0,83,46.31a8.41,8.41,0,0,0,3.61,1.79,12.42,12.42,0,0,0,1.31.23,9.08,9.08,0,0,1-1.27,1.35c-1.44,1.24-4.1,2.59-5.73.94-1.35-1.36-1.51-3.65-2.25-5.34a6.6,6.6,0,0,0-4.57-4c-2.82-.47-4.18,2.06-5.5,4.07l-4.19,6.39a19.31,19.31,0,0,1-4.59-9.59c-.2-1.2-1.73-1.32-2.5-.66-2.85,2.44-3.95,6.16-6.53,8.8-1.14,1.16-2.74,2.28-4.46,2s-3-1.85-4-3.19A21.6,21.6,0,0,1,39.72,44c1.27-1,2.53-2,3.77-3,3-2.52,6.61-5.32,7.59-9.35.8-3.26-.3-7.31-3.55-8.79-3.65-1.66-7.21.73-9.28,3.69-2.33,3.32-3,7.78-2.7,11.75a25.79,25.79,0,0,0,.72,4.63q-4.89,3.75-10,7.16c-5.55,3.68-15.61,8.4-13.65,16.69.44,1.88,3.33,1.09,2.89-.79-.88-3.71,2.52-6.74,5.21-8.7,3.64-2.65,7.58-4.89,11.27-7.49,1.78-1.25,3.53-2.54,5.26-3.85a23.78,23.78,0,0,0,2.07,4,12.21,12.21,0,0,0,4.76,4.75,6.91,6.91,0,0,0,6.37-.37c3.5-2,4.85-5.7,7.13-8.71a21.89,21.89,0,0,0,6,9.58,1.52,1.52,0,0,0,2.36-.3l5.79-8.83c.66-1,1.24-2.37,2.6-1.52a5.59,5.59,0,0,1,2.1,3.34c.74,2.34,1.56,4.86,4,6C83,55.07,86,54,88.14,52.29a10.78,10.78,0,0,0,3.3-4.09,18.44,18.44,0,0,0,8.39-4.65,8.18,8.18,0,0,0,.59,3.74,6,6,0,0,0,5.4,3.84c2.62-.09,4.81-2.22,6.56-4a30.17,30.17,0,0,0,3.12-3.66,6.59,6.59,0,0,0,4.37,3c3.71.69,7.65-1.55,10-4.32a7,7,0,0,0,.65-.89,7.24,7.24,0,0,0,4.89,4.5c4.43,1.11,8.21-1.71,11.41-4.38A1.53,1.53,0,0,0,146.81,39.31ZM38.89,40.87a19.86,19.86,0,0,1-.3-2c-.29-3.4,0-7.24,1.84-10.21,1.37-2.24,4.85-5.11,7-2.11,2,2.78.23,6.28-1.8,8.44A55.64,55.64,0,0,1,38.89,40.87ZM86.67,45c-.45-.15-.84-.45-1.28-.62s-.51-.19-.3-.78c.76-2.16,3.12-1,3.71.56A3.32,3.32,0,0,1,89,45.39,7.51,7.51,0,0,1,86.67,45ZM124,43a5.2,5.2,0,0,1-4.5.29,3.48,3.48,0,0,1-1.83-2.13c.79-2.4,2.12-4.79,4.39-6a4.67,4.67,0,0,1,6.21,1.67C129.69,39.44,126.05,42,124,43Z"/><path class="cls-1" d="M61.87,33.62a21.78,21.78,0,0,0,5.31-4.82,1.63,1.63,0,0,0,.44-1.07,1.53,1.53,0,0,0-.44-1.06,1.56,1.56,0,0,0-1.06-.44,1.48,1.48,0,0,0-1.06.44,19.84,19.84,0,0,1-2.28,2.48c-.37.35-.77.67-1.16,1l-.2.15c-.11.09-.23.17-.35.25s-.47.33-.72.49a1.5,1.5,0,0,0,1.52,2.59Z"/><path class="cls-1" d="M252.63,38.2c-2.53-3.53-6.89-4.71-11-3.9A16.3,16.3,0,0,0,238,35.47c-2.35-4-9-6.17-12-1.63A6.22,6.22,0,0,0,225,37a26.77,26.77,0,0,1-3.9,6,15.11,15.11,0,0,1-2.87,2.78c-1.13.72-1.55-.85-1.91-1.72a43.38,43.38,0,0,1-3.15-13.87,30.51,30.51,0,0,0-.09-3.17c-.18-1.89-3-2-3,0,0,1.11,0,2.21.09,3.31a26.71,26.71,0,0,1-2.83,11.42c-1,1.88-2.3,4.68-4.32,5.61-2.2,1-2.25-2.52-2.23-3.81,0-1.65-2.63-2.1-2.94-.4A14.69,14.69,0,0,1,196,48.06a13,13,0,0,1-1.72,2.27l0,0-.12-.39a41.28,41.28,0,0,1-1-6.06c-.16-1.64.12-3.65-.53-5.2-1.64-3.93-6.09-.22-8.21,1.08A10.46,10.46,0,0,1,181.83,41c-.08-.15-.15-.31-.24-.46a5.43,5.43,0,0,0-5.94-2.64,1.52,1.52,0,0,0-1.1,1.45,5.58,5.58,0,0,0,5,4.75c0,1.92-1.25,3.79-2.28,5.3-.91,1.34-2.08,2.87-3.74,1.62-1.48-1.1-2.26-3-2.93-4.64a45.17,45.17,0,0,1-3.17-11.59c1.17-.83,2.33-1.69,3.45-2.61,3.1-2.56,6.35-5.78,7.68-9.67a7.47,7.47,0,0,0-.09-5.69,5.24,5.24,0,0,0-5.08-2.77c-5.05.37-7.37,5.89-8.4,10.15a29.7,29.7,0,0,0-.68,9.16c-3.38,2.31-6.91,4.43-10.16,6.91A32.8,32.8,0,0,0,146,48.61c-1.86,3-2.93,7.7.21,10.24,1.49,1.2,3.63-.91,2.12-2.12-3.21-2.6.76-7.6,2.69-9.69a51.6,51.6,0,0,1,9.68-7.73l4-2.62q.19,1.31.48,2.58a48.76,48.76,0,0,0,2.28,7.31,18.4,18.4,0,0,0,3.23,5.89c1.57,1.71,4,2.7,6.16,1.58s3.76-3.94,4.72-6.07a9.6,9.6,0,0,0,.94-4,18.14,18.14,0,0,0,5-2.65c.45-.3.9-.59,1.36-.86.14-.08,1.14-.48.89-.64.37.23.17,2.54.2,3a48.75,48.75,0,0,0,1,7.11c.38,1.68.92,4,3.1,3.9,1.87-.07,3.35-2.43,4.25-3.84.23-.35.43-.72.63-1.1a4,4,0,0,0,1.77,1.42c3.21,1.28,5.82-1.7,7.42-4.07a29.28,29.28,0,0,0,3.37-6.85c.34,1.29.71,2.57,1.17,3.83a16.31,16.31,0,0,0,2,4.33,3.54,3.54,0,0,0,3.75,1.47c1.55-.41,2.81-1.79,3.88-2.9a29.18,29.18,0,0,0,3.09-3.84,7.81,7.81,0,0,0,1.13,2.58,6.52,6.52,0,0,0,6.27,2.64c4.63-.6,6.9-4.94,6.2-9.08a13.1,13.1,0,0,1,2.49-1c3-.76,6.6-.32,8.49,2.34C251.15,41.27,253.75,39.78,252.63,38.2Zm-83.45-17c.78-1.69,1.93-3.62,3.89-4a2.35,2.35,0,0,1,3,2.4c0,3.26-2.69,6.21-4.87,8.35a42.42,42.42,0,0,1-4,3.44A23.53,23.53,0,0,1,169.18,21.16Zm58.89,15.31a2.84,2.84,0,0,1,.35-.88c.9-1.5,2.89-1.54,4.36-.93a5.5,5.5,0,0,1,2.54,2.24l-.48.28c-1.48.93-4,2.94-5.86,2a1.79,1.79,0,0,1-.89-1.08c0-.38,0-.75.06-1.1A1.24,1.24,0,0,0,228.07,36.47Zm6.35,7.27a3.69,3.69,0,0,1-5.88-1.6,6.47,6.47,0,0,0,3.81-.23,22.37,22.37,0,0,0,3.9-2A4.27,4.27,0,0,1,234.42,43.74Z"/><path class="cls-1" d="M212.28,24.34c6.28-3,14.12-6.06,20.7-2.13a1.5,1.5,0,0,0,1.52-2.59c-6.24-3.72-13.75-2.21-20.06.47-3.46,1.47-6.77,3.28-10.26,4.68-2.56,1-6.32,2.25-8.56,0-1.36-1.38-3.48.75-2.12,2.12C198.61,32.06,207.14,26.78,212.28,24.34Z"/><path class="cls-1" d="M201.31,37l0-.07a4.39,4.39,0,0,0-.28-.36s0,0-.05-.05l-.17-.13a.74.74,0,0,0-.16-.12l0,0,0,0-.39-.16-.08,0a3.18,3.18,0,0,0-.43-.06h-.14l-.43.06H199l-.09,0a2.21,2.21,0,0,0-.52.24l-.34.26,0,0,0,0a4.08,4.08,0,0,0-.25.33l-.06.08,0,0c-.06.14-.12.27-.17.41a1.07,1.07,0,0,0,0,.59,1.11,1.11,0,0,0,.17.56,1.07,1.07,0,0,0,.29.31l0,0,.13.16a1.53,1.53,0,0,0,.13.16l0,0a1.61,1.61,0,0,0,.42.32l0,0,.39.17.08,0a.91.91,0,0,0,.23,0l.24,0a2.19,2.19,0,0,0,.47-.05l.07,0a2.69,2.69,0,0,0,.43-.19l.17-.13a1.24,1.24,0,0,0,.18-.14,1.57,1.57,0,0,0,.17-.21,1.13,1.13,0,0,0,.15-.21l0,0a2.66,2.66,0,0,0,.16-.39l0-.07v0c0-.14.05-.29.06-.43v-.12l-.06-.43A2,2,0,0,0,201.31,37Z"/><path class="cls-1" d="M102.91,34a.92.92,0,0,0,.28.31s0,0,0,.05l.12.16.13.17,0,0a2.18,2.18,0,0,0,.42.33l0,0,.39.16.08,0a1,1,0,0,0,.23,0l.24,0a2.19,2.19,0,0,0,.47,0l.07,0a2.69,2.69,0,0,0,.43-.19l.17-.13a1.24,1.24,0,0,0,.18-.14,1.57,1.57,0,0,0,.17-.21,1.16,1.16,0,0,0,.16-.21v0c.06-.12.12-.26.17-.39a.19.19,0,0,1,0-.07v0c0-.14,0-.29.06-.43v-.12l-.06-.43a2.47,2.47,0,0,0-.19-.5.43.43,0,0,1,0-.07,4.39,4.39,0,0,0-.28-.36s0,0,0-.05l-.16-.13-.17-.12,0,0,0,0-.39-.16-.08,0a3.18,3.18,0,0,0-.43-.06h-.14l-.43.06h0l-.09,0a2.21,2.21,0,0,0-.52.24,4.19,4.19,0,0,0-.33.26l0,0,0,0a4.08,4.08,0,0,0-.25.33l-.06.09,0,0c-.06.13-.12.26-.17.4a1.08,1.08,0,0,0,0,.59A1.12,1.12,0,0,0,102.91,34Z"/></svg>